HIERARCHY
ROOT Hips
{
	OFFSET 0.000000 89.005402 0.000000
	CHANNELS 6 Xposition Yposition Zposition Xrotation Yrotation Zrotation
	JOINT Spine
	{
		OFFSET 0.116900 10.681000 0.373400
		CHANNELS 3 Xrotation Yrotation Zrotation
		JOINT Spine1
		{
			OFFSET 0.000000 13.840401 0.053500
			CHANNELS 3 Xrotation Yrotation Zrotation
			JOINT Spine2
			{
				OFFSET 0.000000 14.712700 -0.366200
				CHANNELS 3 Xrotation Yrotation Zrotation
				JOINT Neck
				{
					OFFSET 0.000000 35.415497 -3.314200
					CHANNELS 3 Xrotation Yrotation Zrotation
					JOINT Head
					{
						OFFSET 0.000000 16.899200 1.218300
						CHANNELS 3 Xrotation Yrotation Zrotation
						JOINT HeadTop_End
						{
							OFFSET 0.000000 22.206207 2.192500
							CHANNELS 3 Xrotation Yrotation Zrotation
							End Site
							{
								OFFSET 0.000000 22.314178 0.000000
							}
						}
					}
				}
				JOINT LeftShoulder
				{
					OFFSET 12.896400 26.716293 -4.548400
					CHANNELS 3 Xrotation Yrotation Zrotation
					JOINT LeftArm
					{
						OFFSET 19.027000 -4.857010 -1.718400
						CHANNELS 3 Xrotation Yrotation Zrotation
						JOINT LeftForeArm
						{
							OFFSET 24.179897 0.000000 0.000000
							CHANNELS 3 Xrotation Yrotation Zrotation
							JOINT LeftHand
							{
								OFFSET 27.156403 0.000000 0.000000
								CHANNELS 3 Xrotation Yrotation Zrotation
								JOINT LeftHandIndex1
								{
									OFFSET 16.441200 0.000000 0.000000
									CHANNELS 3 Xrotation Yrotation Zrotation
									JOINT LeftHandIndex2
									{
										OFFSET 4.821899 0.000000 0.000000
										CHANNELS 3 Xrotation Yrotation Zrotation
										JOINT LeftHandIndex3
										{
											OFFSET 6.386497 0.000000 0.000000
											CHANNELS 3 Xrotation Yrotation Zrotation
											JOINT LeftHandIndex4
											{
												OFFSET 5.188988 0.000000 0.000000
												CHANNELS 3 Xrotation Yrotation Zrotation
												End Site
												{
													OFFSET -0.178703 5.185913 0.000177
												}
											}
										}
									}
								}
								JOINT LeftHandThumb1
								{
									OFFSET 6.534897 -5.032593 5.900300
									CHANNELS 3 Xrotation Yrotation Zrotation
									JOINT LeftHandThumb2
									{
										OFFSET 3.818176 -2.204422 2.204423
										CHANNELS 3 Xrotation Yrotation Zrotation
										JOINT LeftHandThumb3
										{
											OFFSET 3.252098 -1.877594 1.877601
											CHANNELS 3 Xrotation Yrotation Zrotation
											JOINT LeftHandThumb4
											{
												OFFSET 5.251778 -3.032120 3.032117
												CHANNELS 3 Xrotation Yrotation Zrotation
												End Site
												{
													OFFSET 0.000023 6.780014 0.000000
												}
											}
										}
									}
								}
							}
						}
					}
				}
				JOINT RightShoulder
				{
					OFFSET -12.896300 26.716293 -4.548400
					CHANNELS 3 Xrotation Yrotation Zrotation
					JOINT RightArm
					{
						OFFSET -19.027000 -4.857010 -1.718400
						CHANNELS 3 Xrotation Yrotation Zrotation
						JOINT RightForeArm
						{
							OFFSET -24.179897 0.000000 0.000000
							CHANNELS 3 Xrotation Yrotation Zrotation
							JOINT RightHand
							{
								OFFSET -27.156403 0.000000 0.000000
								CHANNELS 3 Xrotation Yrotation Zrotation
								JOINT RightHandThumb1
								{
									OFFSET -6.591202 -4.852203 5.988100
									CHANNELS 3 Xrotation Yrotation Zrotation
									JOINT RightHandThumb2
									{
										OFFSET -3.818176 -2.204422 2.204423
										CHANNELS 3 Xrotation Yrotation Zrotation
										JOINT RightHandThumb3
										{
											OFFSET -3.252098 -1.877594 1.877601
											CHANNELS 3 Xrotation Yrotation Zrotation
											JOINT RightHandThumb4
											{
												OFFSET -5.251778 -3.032120 3.032117
												CHANNELS 3 Xrotation Yrotation Zrotation
												End Site
												{
													OFFSET -0.000023 6.780014 0.000000
												}
											}
										}
									}
								}
								JOINT RightHandIndex1
								{
									OFFSET -16.029404 0.000000 0.000000
									CHANNELS 3 Xrotation Yrotation Zrotation
									JOINT RightHandIndex2
									{
										OFFSET -5.213303 0.000000 0.000000
										CHANNELS 3 Xrotation Yrotation Zrotation
										JOINT RightHandIndex3
										{
											OFFSET -6.386528 0.000000 0.000000
											CHANNELS 3 Xrotation Yrotation Zrotation
											JOINT RightHandIndex4
											{
												OFFSET -5.189026 0.000000 0.000000
												CHANNELS 3 Xrotation Yrotation Zrotation
												End Site
												{
													OFFSET 0.236702 5.183624 0.001972
												}
											}
										}
									}
								}
							}
						}
					}
				}
			}
		}
	}
	JOINT LeftUpLeg
	{
		OFFSET 14.073000 -7.904099 -1.463000
		CHANNELS 3 Xrotation Yrotation Zrotation
		JOINT LeftLeg
		{
			OFFSET -0.109806 -34.073280 4.093200
			CHANNELS 3 Xrotation Yrotation Zrotation
			JOINT LeftFoot
			{
				OFFSET 0.109806 -29.899420 -6.319000
				CHANNELS 3 Xrotation Yrotation Zrotation
				JOINT LeftToeBase
				{
					OFFSET 1.551100 -14.988700 20.535801
					CHANNELS 3 Xrotation Yrotation Zrotation
					JOINT LeftToe_End
					{
						OFFSET 0.221200 0.570800 13.248301
						CHANNELS 3 Xrotation Yrotation Zrotation
						End Site
						{
							OFFSET 0.000000 13.262435 0.000000
						}
					}
				}
			}
		}
	}
	JOINT RightUpLeg
	{
		OFFSET -13.839300 -7.904099 -1.463000
		CHANNELS 3 Xrotation Yrotation Zrotation
		JOINT RightLeg
		{
			OFFSET 0.109694 -34.073219 4.093300
			CHANNELS 3 Xrotation Yrotation Zrotation
			JOINT RightFoot
			{
				OFFSET -0.109694 -29.899384 -6.319200
				CHANNELS 3 Xrotation Yrotation Zrotation
				JOINT RightToeBase
				{
					OFFSET -1.551100 -14.988700 20.535801
					CHANNELS 3 Xrotation Yrotation Zrotation
					JOINT RightToe_End
					{
						OFFSET -0.221200 0.570900 13.248299
						CHANNELS 3 Xrotation Yrotation Zrotation
						End Site
						{
							OFFSET 0.000000 13.262440 0.000000
						}
					}
				}
			}
		}
	}
}
MOTION
Frames: 4
Frame Time: 0.033333
0.369242 146.714386 20.996876 -26.775959 -2.356812 -1.064203 -8.449726 -3.295703 3.506146 -1.348914 -0.941571 0.448799 -1.352575 -0.934069 0.454263 2.523408 -0.071079 1.292539 21.394944 4.791764 -6.220635 0.000000 0.000000 0.000000 0.501153 -5.270542 -7.806871 -16.586923 19.764092 -28.835034 -0.000009 -18.845265 -0.000007 4.769224 7.373370 4.638200 -1.733266 -2.965523 -17.643886 0.673208 2.728550 -27.714403 0.127226 1.215598 -11.950433 0.000000 -0.000003 0.000000 -7.220050 -16.942335 15.004573 8.794626 6.511413 5.542586 2.304279 -2.568590 17.187686 -0.000001 0.000001 -0.000000 0.401413 4.074106 18.087924 -15.251001 -24.573632 28.419444 -0.000009 40.832537 0.000000 7.020021 7.489080 -15.153779 -29.747349 -9.206946 6.858828 15.738998 -8.312260 6.828508 -15.022788 -11.158765 -16.303422 -0.000001 -0.000003 0.000002 -0.797888 -0.539209 19.767259 0.062416 -0.760734 9.380852 0.132043 -1.102264 13.661709 0.000000 0.000001 0.000002 26.542178 14.848787 -2.485124 22.184540 -5.591934 1.444915 -9.236729 -1.595624 10.002395 9.118998 -0.000003 0.000000 0.000000 0.000000 -0.000000 22.666176 -7.498181 1.230582 25.281983 -0.213633 -4.898921 -5.699046 -3.764535 -8.675069 2.581355 0.000006 -0.000000 0.000000 -0.000001 0.000001 
0.432793 147.124893 21.049961 -25.595642 -2.653574 -1.151862 -8.691245 -3.405672 3.978459 -1.349925 -0.953096 0.581303 -1.354451 -0.945120 0.586248 2.536757 -0.150395 1.474485 21.793720 4.533489 -5.821598 -0.000001 -0.000000 0.000000 0.435862 -3.754331 -7.299421 -14.325559 27.275640 -30.484176 -0.000001 -18.630208 0.000001 -0.094393 9.706343 10.132442 -1.733265 -2.965518 -17.643893 0.673202 2.728548 -27.714406 0.127227 1.215599 -11.950429 0.000000 -0.000000 -0.000000 -7.220050 -16.942335 15.004578 8.794628 6.511413 5.542585 2.304283 -2.568590 17.187688 -0.000002 0.000000 -0.000000 0.445591 3.248637 18.676548 -14.790005 -33.480771 29.289955 0.000019 45.734134 -0.000022 7.423739 7.656157 -21.334323 -29.747349 -9.206947 6.858829 15.739000 -8.312263 6.828512 -15.022791 -11.158771 -16.303419 0.000000 -0.000001 -0.000002 -0.797896 -0.539209 19.767262 0.062417 -0.760737 9.380849 0.132042 -1.102267 13.661714 -0.000000 -0.000000 0.000000 26.391839 14.203814 -2.958679 20.421828 -4.830274 1.462833 -9.480540 -1.610768 10.035799 8.624525 -0.000001 0.000005 0.000000 0.000001 0.000000 22.439676 -7.154326 1.387099 23.619788 -0.229051 -4.912641 -6.286568 -3.940420 -8.828901 2.546078 0.000001 -0.000004 -0.000001 0.000000 -0.000000 
0.563388 147.540024 20.852707 -24.604819 -1.793220 -1.147662 -8.817587 -3.088870 4.135014 -1.318995 -0.850217 0.636660 -1.323621 -0.840967 0.642647 2.478833 -0.318068 1.675163 22.654556 3.536097 -4.994500 -0.000001 -0.000000 0.000000 0.398903 -3.332931 -7.450955 -10.344998 31.018905 -36.654087 -0.000007 -18.989852 -0.000003 -3.196589 10.450247 15.055550 -1.733267 -2.965525 -17.643892 0.673206 2.728554 -27.714403 0.127226 1.215606 -11.950429 -0.000001 0.000001 -0.000000 -7.220047 -16.942339 15.004575 8.794624 6.511412 5.542585 2.304283 -2.568588 17.187690 0.000000 -0.000001 -0.000003 0.499742 2.375310 19.627428 -13.980654 -40.462071 33.163034 -0.000003 46.605560 0.000010 6.795489 6.495582 -30.309265 -29.747349 -9.206945 6.858829 15.739001 -8.312259 6.828510 -15.022791 -11.158765 -16.303421 -0.000001 -0.000003 -0.000000 -0.797892 -0.539210 19.767259 0.062419 -0.760733 9.380858 0.132041 -1.102264 13.661709 0.000002 0.000000 -0.000002 25.596592 13.971766 -2.890197 19.554965 -5.345959 1.848027 -9.905917 -1.674436 10.088128 8.168323 -0.000001 0.000001 -0.000001 0.000000 0.000000 22.704508 -6.880233 1.777264 21.366063 -0.826780 -4.403178 -6.567112 -4.167176 -8.899262 2.531184 0.000001 -0.000003 0.000001 0.000000 0.000000 
0.762652 147.960938 20.389271 -23.866013 0.045292 -0.957957 -8.832997 -2.743183 3.922062 -1.281268 -0.746831 0.591557 -1.285385 -0.736431 0.598742 2.315384 -0.486137 1.820075 23.603802 2.363054 -4.123211 0.000000 -0.000000 -0.000000 0.408607 -4.044098 -8.670053 -5.733202 29.720895 -44.440752 -0.000018 -18.763511 -0.000010 -2.592432 10.887567 15.395863 -1.733268 -2.965521 -17.643886 0.673209 2.728554 -27.714403 0.127226 1.215601 -11.950429 -0.000000 0.000003 0.000001 -7.220051 -16.942335 15.004575 8.794625 6.511414 5.542583 2.304283 -2.568589 17.187686 0.000001 0.000001 0.000001 0.572711 1.750632 21.179633 -12.645049 -42.067050 38.459009 0.000010 41.589329 -0.000020 3.654645 4.467640 -37.303399 -29.747349 -9.206946 6.858829 15.739001 -8.312264 6.828513 -15.022789 -11.158763 -16.303419 0.000000 -0.000002 -0.000000 -0.797891 -0.539208 19.767262 0.062417 -0.760732 9.380857 0.132042 -1.102270 13.661709 -0.000001 -0.000001 0.000001 24.290200 14.023086 -2.401835 19.433003 -6.729919 2.385963 -10.173693 -1.736855 9.996591 7.806072 0.000003 -0.000000 0.000001 0.000000 -0.000000 23.361139 -6.876107 2.253804 18.726577 -1.555988 -3.569755 -6.441452 -4.426199 -8.840686 2.532340 -0.000004 0.000003 -0.000000 -0.000001 -0.000001 
